<?xml version="1.0" encoding="UTF-8" standalone="no"?>
<svg
   version="1.0"
   width="1053.4948pt"
   height="206.12907pt"
   viewBox="0 0 1053.4948 206.12907"
   preserveAspectRatio="xMidYMid"
   id="svg36"
   xmlns="http://www.w3.org/2000/svg"
   xmlns:svg="http://www.w3.org/2000/svg">
  <defs
     id="defs36" />
  <g
     transform="matrix(0.1,0,0,-0.1,-24.194417,278.32473)"
     fill="#000000"
     stroke="none"
     id="g36">
    <g
       id="g37"
       style="fill:#060083;fill-opacity:1">
      <path
         d="m 1142,2682 c -29,-60 -52,-116 -52,-123 0,-8 122,-275 270,-593 149,-318 270,-580 270,-582 0,-2 -156,-4 -346,-4 H 939 l -44,-92 -43,-93 437,-3 436,-2 89,-195 90,-195 h 124 c 110,0 123,2 118,16 -11,29 -939,1959 -946,1967 -4,4 -30,-41 -58,-101 z"
         id="path1"
         style="fill:#060083;fill-opacity:1" />
      <path
         d="m 9772,2682 c -29,-60 -52,-116 -52,-123 0,-8 122,-275 270,-593 149,-318 270,-580 270,-582 0,-2 -156,-4 -346,-4 h -345 l -44,-92 -43,-93 437,-3 436,-2 89,-195 90,-195 h 124 c 110,0 123,2 118,16 -11,29 -939,1959 -946,1967 -4,4 -30,-41 -58,-101 z"
         id="path2"
         style="fill:#060083;fill-opacity:1" />
      <path
         d="m 4570,2629 v -156 l 751,-874 c 413,-481 755,-875 760,-877 5,-2 9,65 9,150 l -1,153 -740,860 c -407,473 -749,869 -759,880 -20,19 -20,19 -20,-136 z"
         id="path4"
         style="fill:#060083;fill-opacity:1" />
      <path
         d="m 2736,2725 c -224,-46 -379,-202 -409,-409 -31,-212 76,-397 308,-533 49,-29 93,-53 99,-53 15,0 111,183 99,187 -32,11 -144,85 -187,124 -209,190 -89,478 207,496 150,10 276,-48 357,-163 l 35,-50 90,39 c 49,21 91,40 93,42 10,9 -55,107 -101,155 -113,115 -243,170 -417,176 -66,2 -131,-2 -174,-11 z"
         id="path8"
         style="fill:#060083;fill-opacity:1" />
      <path
         d="M 3840,1750 V 800 h 115 115 v 950 950 h -115 -115 z"
         id="path12"
         style="fill:#060083;fill-opacity:1" />
      <path
         d="m 5870,2121 v -579 l 103,-115 c 56,-64 105,-116 110,-116 4,-1 7,312 7,694 v 695 h -110 -110 z"
         id="path13"
         style="fill:#060083;fill-opacity:1" />
      <path
         d="M 6560,1750 V 800 h 110 110 v 950 950 h -110 -110 z"
         id="path14"
         style="fill:#060083;fill-opacity:1" />
      <path
         d="m 6960,2597 v -104 l 103,-6 c 244,-16 428,-110 543,-278 91,-134 126,-262 126,-459 0,-441 -245,-710 -669,-737 l -103,-6 V 902 797 l 113,6 c 465,27 775,288 868,732 18,82 17,342 0,430 -68,344 -280,587 -595,684 -91,28 -234,51 -318,51 h -68 z"
         id="path15"
         style="fill:#060083;fill-opacity:1" />
      <path
         d="M 8340,1750 V 800 h 115 115 v 950 950 h -115 -115 z"
         id="path16"
         style="fill:#060083;fill-opacity:1" />
      <path
         d="M 615,1589 C 412,1165 244,813 242,809 c -2,-5 50,-9 115,-9 h 118 l 308,658 c 169,361 307,664 307,672 0,8 -24,64 -53,123 l -52,109 z"
         id="path25"
         style="fill:#060083;fill-opacity:1" />
      <path
         d="m 9245,1589 c -203,-424 -371,-776 -373,-780 -2,-5 50,-9 115,-9 h 118 l 308,658 c 169,361 307,664 307,672 0,8 -24,64 -53,123 l -52,109 z"
         id="path26"
         style="fill:#060083;fill-opacity:1" />
      <path
         d="M 4570,1495 V 800 h 105 105 v 583 583 l -101,112 c -56,62 -103,112 -105,112 -2,0 -4,-313 -4,-695 z"
         id="path29"
         style="fill:#060083;fill-opacity:1" />
      <path
         d="m 2955,1750 c -25,-49 -45,-91 -45,-94 0,-2 39,-26 87,-52 112,-63 204,-151 226,-218 70,-206 -79,-407 -312,-423 -190,-13 -353,84 -438,264 l -34,71 -97,-33 c -110,-37 -108,-32 -63,-130 127,-273 432,-420 748,-360 259,49 433,257 433,520 0,216 -126,378 -397,514 l -63,31 z"
         id="path33"
         style="fill:#060083;fill-opacity:1" />
    </g>
  </g>
</svg>
